# File created by Blade
# Date/Time:  Thu Sep 25 19:26:26 2014
# Frame Rate: 120.000 fps
#------------------------------------------------------
:FULLY-SPECIFIED
:DEGREES
818
root 1.222034 31.423016 -13.806538 106.261908 23.679630 9.687318
Spine 38.415727 -7.885511 14.453931
Head 3.250176 -18.368511 -39.560123
LeftShoulder 0.529592 -23.116281 35.186903
LeftArm 34.849171 -34.715384 -22.239165
LeftForeArm 51.970993 -0.000000 69.996486
LeftHand -35.617989 -0.000000 38.057453
LeftHandThumb1 -26.253704 0.000000 33.147579
RightShoulder 11.105511 59.439725 -49.496521
RightArm 7.454489 22.144919 59.517221
RightForeArm -52.543914 -0.000000 77.768583
RightHand -10.169641 -0.000000 -56.188149
RightHandThumb1 -24.326973 -0.000000 -32.862282
LeftUpLeg -113.880483 2.363965 5.196459
LeftLeg -3.429801 -0.000000 0.000000
LeftFoot 7.279867 1.811111 -25.500141
LeftToeBase 9.701201 -0.000000 -0.000000
RightUpLeg -109.876083 -22.906223 33.781986
RightLeg -4.934035 -0.000000 0.000000
RightFoot 6.316466 -17.527553 18.177886
RightToeBase 4.351476 -0.000000 -0.000000
819
root 1.228547 31.420185 -13.814152 106.139856 23.910072 9.694139
Spine 38.350787 -7.548049 14.137263
Head 3.129993 -18.045334 -38.173127
LeftShoulder 0.863385 -23.207150 35.369040
LeftArm 34.517054 -34.868277 -22.561102
LeftForeArm 51.759411 0.000000 69.865277
LeftHand -35.176403 -0.000000 38.170483
LeftHandThumb1 -26.253704 0.000000 33.147579
RightShoulder 10.716814 59.058008 -49.481062
RightArm 8.136203 21.420657 59.305743
RightForeArm -52.723831 -0.000000 77.776063
RightHand -10.047973 -0.000000 -56.496157
RightHandThumb1 -24.326973 -0.000000 -32.862282
LeftUpLeg -113.745335 2.390180 5.387645
LeftLeg -3.506729 -0.000000 0.000000
LeftFoot 7.340455 1.775787 -25.521412
LeftToeBase 9.777697 -0.000000 -0.000000
RightUpLeg -109.670105 -23.010616 33.788277
RightLeg -4.908617 -0.000000 0.000000
RightFoot 6.236961 -17.673436 18.273469
RightToeBase 4.389323 -0.000000 -0.000000
820
root 1.237317 31.416570 -13.819316 105.993283 24.106383 9.688319
Spine 38.332240 -7.231080 13.749547
Head 3.007221 -17.705374 -36.752558
LeftShoulder 1.141986 -23.352704 35.481403
LeftArm 34.219099 -34.858412 -22.701151
LeftForeArm 51.432262 -0.000000 69.683862
LeftHand -35.179488 0.000000 38.205796
LeftHandThumb1 -26.253704 0.000000 33.147579
RightShoulder 10.352094 58.765600 -49.470545
RightArm 8.794007 20.719824 59.103838
RightForeArm -52.858382 0.000000 77.843688
RightHand -9.887049 0.000000 -56.293412
RightHandThumb1 -24.326973 -0.000000 -32.862282
LeftUpLeg -113.584562 2.393679 5.505476
LeftLeg -3.584235 -0.000000 0.000000
LeftFoot 7.406910 1.614381 -25.604072
LeftToeBase 10.036637 -0.000000 -0.000000
RightUpLeg -109.422088 -23.142668 33.704641
RightLeg -4.872386 -0.000000 0.000000
RightFoot 6.164259 -17.790225 18.282021
RightToeBase 4.379077 -0.000000 -0.000000
821
root 1.243369 31.413712 -13.821461 105.876923 24.343915 9.703207
Spine 38.303657 -6.903989 13.410777
Head 2.881899 -17.468677 -35.371813
LeftShoulder 1.438570 -23.628848 35.708027
LeftArm 33.869130 -34.851932 -23.045099
LeftForeArm 51.521664 -0.000000 69.521304
LeftHand -35.872337 -0.000000 38.523729
LeftHandThumb1 -26.253704 0.000000 33.147579
RightShoulder 9.944066 58.430029 -49.469653
RightArm 9.534356 19.995050 58.857240
RightForeArm -52.910069 0.000000 77.833516
RightHand -9.826451 -0.000000 -56.228894
RightHandThumb1 -24.326973 -0.000000 -32.862282
LeftUpLeg -113.444186 2.431857 5.747429
LeftLeg -3.642276 -0.000000 0.000000
LeftFoot 7.481446 1.565765 -25.515092
LeftToeBase 9.681118 -0.000000 -0.000000
RightUpLeg -109.205863 -23.249987 33.721892
RightLeg -4.847555 -0.000000 0.000000
RightFoot 6.082645 -17.889026 18.394659
RightToeBase 4.387063 -0.000000 -0.000000
822
root 1.250519 31.410573 -13.824442 105.755122 24.564805 9.711120
Spine 38.300297 -6.599614 13.056633
Head 2.599628 -17.306428 -34.019166
LeftShoulder 1.654310 -23.858962 35.957188
LeftArm 33.519193 -34.772509 -23.380906
LeftForeArm 51.244842 -0.000000 69.356104
LeftHand -35.735752 -0.000000 38.759972
LeftHandThumb1 -26.253704 0.000000 33.147579
RightShoulder 9.485881 58.184565 -49.566121
RightArm 10.252150 19.188611 58.629253
RightForeArm -52.931570 -0.000000 77.818679
RightHand -10.218092 -0.000000 -56.335085
RightHandThumb1 -24.326973 -0.000000 -32.862282
LeftUpLeg -113.291501 2.451268 5.944438
LeftLeg -3.739151 -0.000000 0.000000
LeftFoot 7.545476 1.564574 -25.488952
LeftToeBase 9.561923 -0.000000 -0.000000
RightUpLeg -108.990042 -23.359343 33.714509
RightLeg -4.826812 -0.000000 0.000000
RightFoot 6.009737 -18.039339 18.479226
RightToeBase 4.366710 -0.000000 -0.000000
823
root 1.255558 31.409474 -13.827216 105.675853 24.781990 9.708752
Spine 38.204177 -6.278868 12.673079
Head 2.606671 -17.066959 -32.833955
LeftShoulder 1.937540 -24.049206 36.150542
LeftArm 33.208424 -34.745635 -23.685105
LeftForeArm 51.045697 -0.000000 69.111965
LeftHand -35.470907 -0.000000 39.069284
LeftHandThumb1 -26.253704 0.000000 33.147579
RightShoulder 9.194773 57.877558 -49.487853
RightArm 11.010724 18.384627 58.255486
RightForeArm -52.882800 -0.000000 77.707860
RightHand -10.290509 0.000000 -56.272190
RightHandThumb1 -24.326973 -0.000000 -32.862282
LeftUpLeg -113.173071 2.540167 6.223049
LeftLeg -3.817527 -0.000000 0.000000
LeftFoot 7.552475 1.560783 -25.555469
LeftToeBase 9.781857 -0.000000 -0.000000
RightUpLeg -108.829593 -23.420296 33.742958
RightLeg -4.805812 -0.000000 0.000000
RightFoot 5.949208 -18.203555 18.576470
RightToeBase 4.450534 -0.000000 -0.000000
824
root 1.261379 31.405836 -13.826292 105.514565 25.013229 9.714619
Spine 38.262060 -5.897509 12.364365
Head 2.591314 -16.955853 -31.623425
LeftShoulder 2.317764 -24.392006 36.369620
LeftArm 32.777223 -34.679589 -23.960021
LeftForeArm 50.863012 -0.000000 68.947422
LeftHand -35.611296 -0.000000 39.252205
LeftHandThumb1 -26.253704 0.000000 33.147579
RightShoulder 8.633924 57.422929 -49.632189
RightArm 11.961393 17.684015 57.917198
RightForeArm -53.131153 -0.000000 77.460702
RightHand -10.107587 -0.000000 -56.185275
RightHandThumb1 -24.326973 -0.000000 -32.862282
LeftUpLeg -113.008217 2.522846 6.332463
LeftLeg -3.877845 -0.000000 0.000000
LeftFoot 7.667590 1.442916 -25.559857
LeftToeBase 9.777391 -0.000000 -0.000000
RightUpLeg -108.580663 -23.535923 33.753945
RightLeg -4.761997 -0.000000 0.000000
RightFoot 5.874411 -18.249359 18.601328
RightToeBase 4.396488 -0.000000 -0.000000
825
root 1.267072 31.403154 -13.825612 105.388426 25.219412 9.719575
Spine 38.283051 -5.554389 11.981549
Head 2.536675 -16.908728 -30.480177
LeftShoulder 2.666288 -24.821673 36.654103
LeftArm 32.188977 -34.507438 -24.220943
LeftForeArm 50.556154 -0.000000 68.852943
LeftHand -35.529876 -0.000000 39.477229
LeftHandThumb1 -26.253704 0.000000 33.147579
RightShoulder 8.077237 56.979877 -49.757207
RightArm 12.999758 17.031246 57.669106
RightForeArm -53.073598 -0.000000 77.208487
RightHand -9.850392 -0.000000 -56.023833
RightHandThumb1 -24.326973 -0.000000 -32.862282
LeftUpLeg -112.869276 2.507174 6.458652
LeftLeg -3.946400 -0.000000 0.000000
LeftFoot 7.738162 1.412772 -25.495408
LeftToeBase 9.731727 -0.000000 -0.000000
RightUpLeg -108.371311 -23.641137 33.741129
RightLeg -4.716437 -0.000000 0.000000
RightFoot 5.785629 -18.352192 18.683634
RightToeBase 4.387473 -0.000000 -0.000000
826
root 1.270156 31.402208 -13.825216 105.325249 25.460620 9.702410
Spine 38.217626 -5.208951 11.647786
Head 2.485098 -16.784621 -29.424371
LeftShoulder 2.994922 -25.168635 36.848754
LeftArm 31.719809 -34.409540 -24.496169
LeftForeArm 50.391188 -0.000000 68.664007
LeftHand -35.362394 -0.000000 39.534728
LeftHandThumb1 -26.253704 0.000000 33.147579
RightShoulder 7.563538 56.572813 -49.853241
RightArm 14.046470 16.286642 57.349777
RightForeArm -53.099885 0.000000 76.996177
RightHand -9.876659 -0.000000 -55.780168
RightHandThumb1 -24.326973 -0.000000 -32.862282
LeftUpLeg -112.820086 2.542960 6.611016
LeftLeg -3.961765 -0.000000 0.000000
LeftFoot 7.796665 1.375995 -25.673175
LeftToeBase 9.750794 -0.000000 -0.000000
RightUpLeg -108.205975 -23.672571 33.769762
RightLeg -4.672323 -0.000000 0.000000
RightFoot 5.697525 -18.512061 18.753131
RightToeBase 4.435262 -0.000000 -0.000000
827
root 1.276956 31.400109 -13.820954 105.232763 25.679983 9.697611
Spine 38.204526 -4.935188 11.258745
Head 2.426612 -16.649118 -28.494169
LeftShoulder 3.283136 -25.274391 37.015211
LeftArm 31.388739 -34.497460 -24.780092
LeftForeArm 50.202096 0.000000 68.467932
LeftHand -35.011010 0.000000 39.523302
LeftHandThumb1 -26.253704 0.000000 33.147579
RightShoulder 7.224227 56.341448 -49.868540
RightArm 14.903368 15.528829 56.918663
RightForeArm -53.176032 -0.000000 76.738264
RightHand -9.991907 -0.000000 -55.554935
RightHandThumb1 -24.326973 -0.000000 -32.862282
LeftUpLeg -112.712185 2.564223 6.775589
LeftLeg -4.013731 -0.000000 0.000000
LeftFoot 7.819544 1.341408 -25.789784
LeftToeBase 9.821836 -0.000000 -0.000000
RightUpLeg -108.033350 -23.736347 33.801964
RightLeg -4.614785 -0.000000 0.000000
RightFoot 5.622670 -18.598968 18.783466
RightToeBase 4.452171 -0.000000 -0.000000
